<svg xmlns="http://www.w3.org/2000/svg" width="18" height="18" viewBox="0 0 18 18">
  <g id="Icon_ionic-ios-chatbubbles" data-name="Icon ionic-ios-chatbubbles" transform="translate(-3.375 -3.375)">
    <path id="Path_113211" data-name="Path 113211" d="M21.794,15.17a1.048,1.048,0,0,1,.143-.528,1.456,1.456,0,0,1,.091-.134A7.011,7.011,0,0,0,23.222,10.6a7.36,7.36,0,0,0-7.516-7.226,7.464,7.464,0,0,0-7.369,5.75,6.953,6.953,0,0,0-.16,1.48,7.34,7.34,0,0,0,7.4,7.317,8.911,8.911,0,0,0,2.042-.333c.489-.134.974-.312,1.1-.359a1.144,1.144,0,0,1,.4-.074,1.125,1.125,0,0,1,.437.087l2.453.87a.585.585,0,0,0,.169.043.344.344,0,0,0,.346-.346.556.556,0,0,0-.022-.117Z" transform="translate(-1.847 0)" fill="#343a40"/>
    <path id="Path_113212" data-name="Path 113212" d="M15.079,21.946c-.156.043-.355.091-.571.138a7.986,7.986,0,0,1-1.471.195,7.34,7.34,0,0,1-7.4-7.317,8.18,8.18,0,0,1,.065-.926c.026-.186.056-.372.1-.554s.1-.389.151-.58l-.346.307a6.439,6.439,0,0,0-2.233,4.842A6.367,6.367,0,0,0,4.448,21.6c.1.151.156.268.138.346s-.515,2.683-.515,2.683a.347.347,0,0,0,.117.333.352.352,0,0,0,.221.078.31.31,0,0,0,.125-.026l2.427-.956a.676.676,0,0,1,.519.009,7.282,7.282,0,0,0,2.626.519A6.8,6.8,0,0,0,15.3,22.2s.138-.19.3-.415C15.443,21.842,15.261,21.9,15.079,21.946Z" transform="translate(0 -3.664)" fill="#343a40"/>
  </g>
</svg>
